<?xml version="1.0" encoding="UTF-8" ?>
<svg xmlns="http://www.w3.org/2000/svg" version="1.1" width="1200" height="500" >
<rect x="0" y="1" width="50" height="500" fill="rgb(200,80,80)" stroke-width="2" stroke="rgb(100,40,40)" />
<text x="25" y="146" style="font-size: 30px; writing-mode: tb; ">input 32 32 3 </text>
<rect x="100" y="1" width="50" height="500" fill="rgb(100,100,190)" stroke-width="2" stroke="rgb(50,50,95)" />
<text x="125" y="109" style="font-size: 30px; writing-mode: tb; ">convolution 5 5 32 </text>
<rect x="200" y="1" width="50" height="500" fill="rgb(190,190,100)" stroke-width="2" stroke="rgb(95,95,50)" />
<text x="225" y="191" style="font-size: 30px; writing-mode: tb; ">relu    </text>
<rect x="300" y="1" width="50" height="500" fill="rgb(190,100,100)" stroke-width="2" stroke="rgb(95,50,50)" />
<text x="325" y="116" style="font-size: 30px; writing-mode: tb; ">max_pooling 2 2 1 </text>
<rect x="400" y="1" width="50" height="500" fill="rgb(100,100,190)" stroke-width="2" stroke="rgb(50,50,95)" />
<text x="425" y="109" style="font-size: 30px; writing-mode: tb; ">convolution 5 5 32 </text>
<rect x="500" y="1" width="50" height="500" fill="rgb(190,190,100)" stroke-width="2" stroke="rgb(95,95,50)" />
<text x="525" y="191" style="font-size: 30px; writing-mode: tb; ">relu    </text>
<rect x="600" y="1" width="50" height="500" fill="rgb(190,100,100)" stroke-width="2" stroke="rgb(95,50,50)" />
<text x="625" y="116" style="font-size: 30px; writing-mode: tb; ">max_pooling 2 2 1 </text>
<rect x="700" y="1" width="50" height="500" fill="rgb(100,100,190)" stroke-width="2" stroke="rgb(50,50,95)" />
<text x="725" y="109" style="font-size: 30px; writing-mode: tb; ">convolution 5 5 64 </text>
<rect x="800" y="1" width="50" height="500" fill="rgb(190,190,100)" stroke-width="2" stroke="rgb(95,95,50)" />
<text x="825" y="191" style="font-size: 30px; writing-mode: tb; ">relu    </text>
<rect x="900" y="1" width="50" height="500" fill="rgb(190,100,100)" stroke-width="2" stroke="rgb(95,50,50)" />
<text x="925" y="116" style="font-size: 30px; writing-mode: tb; ">max_pooling 2 2 1 </text>
<rect x="1000" y="1" width="50" height="500" fill="rgb(100,100,100)" stroke-width="2" stroke="rgb(50,50,50)" />
<text x="1025" y="169" style="font-size: 30px; writing-mode: tb; ">dropout    </text>
<rect x="1100" y="1" width="50" height="500" fill="rgb(100,100,100)" stroke-width="2" stroke="rgb(50,50,50)" />
<text x="1125" y="146" style="font-size: 30px; writing-mode: tb; ">output 1 1 10 </text>
</svg>